<?xml version="1.0" encoding="utf-8"?>
<!-- Generator: Adobe Illustrator 19.1.0, SVG Export Plug-In . SVG Version: 6.00 Build 0)  -->
<!DOCTYPE svg PUBLIC "-//W3C//DTD SVG 1.1//EN" "http://www.w3.org/Graphics/SVG/1.1/DTD/svg11.dtd">
<svg version="1.1" id="Layer_1" xmlns="http://www.w3.org/2000/svg" xmlns:xlink="http://www.w3.org/1999/xlink" x="0px" y="0px"
	 viewBox="0 0 810 374.6" style="enable-background:new 0 0 810 374.6;" xml:space="preserve">
<style type="text/css">
	.st0{fill:#BA2922;}
	.st1{fill:#3F6B89;}
	.st2{fill:#FFFFFF;}
</style>
<g>
	<path class="st0" d="M100.9,373.1c-4.2,0-7.5-2.3-9.4-6.3c-4.3-9.5,0.6-13.5,4.6-16.7c0.5-0.4,1-0.8,1.4-1.2
		c-2.7,0.4-5.4,0.6-8.1,0.6c-9.6,0-18-2.5-25-7.4c-11.8-8.3-25.3-22.3-25.3-58c0-15.9,6-30.6,17.2-42.5c11.2-11.8,26.9-20,45.6-23.8
		c-1.8-1.2-3.9-2.9-5.2-4.9c-0.4-0.7-0.5-1.5-0.1-2.2c0.4-0.7,1.1-1.2,1.9-1.2c0.4,0,0.8,0.1,1.2,0.3c4.7,2.8,9.4,4.2,14.3,4.2
		c5.9,0,11.2-2,15.8-3.8c1.6-0.6,3.1-1.2,4.6-1.7c8.7-2.8,10.5-6.2,10.6-10.9c0-0.9-0.3-1.8-1-2.5c-1.3-1.3-3.7-2.2-6.4-2.2
		c-1.3,0-2.6,0.2-3.8,0.6c-0.2,0.1-0.4,0.1-0.7,0.1c-0.6,0-1.2-0.2-1.6-0.7c-0.4-0.4-0.6-1-0.6-1.6c0.2-6.3,5.5-10.3,13.4-10.3
		c0.2,0,0.5,0,0.7,0c6.5,0.2,11.7,2.6,14.6,6.9c2.9,4.2,3.2,9.8,1.1,15.9c-4.1,11.5-20.6,15-34.4,16.5c11.5,4.2,15.8,11.9,15.8,17.5
		c0,7.8-4.8,15.8-13.8,15.8c-9.8,0-12.7-7.5-14-13.1c-0.2-0.7,0-1.3,0.4-1.9c0.4-0.5,1.1-0.8,1.7-0.8c0.6,0,1.2,0.2,1.6,0.7
		c1.1,1.2,2.9,2.5,5.1,2.5c1.3,0,2.6-1.5,3.1-3.5c0.9-3.2-0.1-7.8-5.5-10.8c-3.2-1.8-7.7-2.8-12.6-2.8c-8.3,0-18.3,2.9-21.9,9.5
		c-2.5,4.5-2.9,8.4-1.3,11.2c1,1.7,2.8,2.8,4.6,2.8c1,0,1.6-0.3,1.8-0.8c0.3-0.9-0.3-2.7-1.9-4.1c-0.6-0.5-0.9-1.2-0.8-2
		c0.1-0.7,0.6-1.4,1.3-1.7c2.4-1.1,4.7-1.6,6.9-1.6c4.3,0,8,2.1,10.2,5.7c2.6,4.2,2.7,9.7,0.3,14.5c-2.6,5.2-7.2,8.1-12.9,8.1
		c-4.6,0-9.6-1.9-13.5-5.2c-5.7-4.8-7.5-11.8-5.4-20.4c-9.1,11.6-9,26-5.7,36c2.8,8.5,8.1,14.6,14.1,16.3c-0.9-4.1,0.3-7,1.4-8.8
		c1.7-2.6,4.6-4.4,8-4.8c0.7-0.1,1.3-0.1,1.9-0.1c5.6,0,10,3.2,11.3,8.3c0.8,2.9,1,8.3-4.9,13c7.3,1,13.2,5.1,16.5,11.4
		c3.9,7.5,3.6,16.9-0.8,25.2c6.6-2.1,12.5-3.1,17.7-3.1c11.3,0,19.4,5.1,21.8,13.7c1.4,5-0.1,9-1.7,11.4c-2.3,3.6-6.2,6.3-10.1,6.9
		c-0.8,0.1-1.7,0.2-2.5,0.2c-3.5,0-9.8-1.3-12.4-10.2c-0.2-0.7-0.1-1.4,0.4-1.9c0.4-0.6,1.1-0.9,1.8-0.9c0.2,0,0.4,0,0.7,0.1
		c0.7,0.2,1.3,0.3,2,0.3c1.8,0,3.4-0.8,4.2-2.1c0.8-1.3,0.9-3,0.1-4.7c-1.4-3.2-5-5-9.7-5c-1.3,0-2.7,0.1-4.1,0.4
		c3.3,1.4,5.2,3.3,6.2,4.8c0.4,0.7,0.5,1.5,0.1,2.2c-0.4,0.7-1.1,1.2-1.9,1.2c-0.3,0-0.5-0.1-0.8-0.1c-4.4-1.7-8-2.5-11.2-2.5
		c-0.9,0-1.7,0.1-2.5,0.2c1.2,0.9,2,1.9,2.3,3.2c0.2,0.7,0.1,1.4-0.4,1.9c-0.4,0.5-1.1,0.9-1.8,0.9c-0.3,0-0.6-0.1-0.9-0.2
		c-1.2-0.6-3.8-1.5-7.6-1.5c-2.6,0-4,1.9-4.5,3.1c-1,2-0.9,4.1-0.4,4.8c1,1.3,1.6,1.7,2.4,1.7c1.2,0,2.8-0.8,5-2.3
		c0.4-0.3,0.8-0.4,1.3-0.4c1,0,1.9,0.7,2.1,1.6c0.7,2.6,0.1,5.4-1.8,7.8C109,371,104.9,373.1,100.9,373.1z M60.4,319.5
		c7.7,14.2,16.1,20.8,27.6,21.5c-9.2-6.9-7.7-14.2-4.7-19.2c0.4-0.7,1.1-1.1,1.9-1.1c1.2,0,2.1,0.9,2.2,2c0.5,7.4,2.8,8.9,6.7,8.9
		c0.2,0,0.5,0,0.7,0c5-0.2,10.4-3.8,10.4-13.2c0-5.9-4.4-10-10.8-10c-2.5,0-5.2,0.7-7.7,2c-0.3,0.2-0.7,0.2-1,0.2l0,0
		c-0.8,0-1.5-0.4-1.9-1.2c-0.4-0.7-0.3-1.6,0.1-2.3c1.3-2,3-3.6,4.5-4.7c-12.6-2.2-25.5-11.5-27.6-28.4c-1.8-15.1,0.4-23.8,5.4-32.7
		c-4.3,3.7-9.3,9.1-10.7,15.2c-2.3,9.5-0.2,12.8,1.7,14.4c0.7,0.6,0.9,1.6,0.6,2.4c-0.3,0.9-1.1,1.4-2,1.4c-0.3,0-0.5,0-0.8-0.1
		c-1.2-0.4-2.4-1-3.6-1.8c-1.7,14.2,0,29.9,7.8,33.9c2.4,1.2,4.5,1.9,6.1,1.9c1.2,0,2-0.4,2.4-1c0.3-0.5,0.3-1,0.1-1.3
		c-0.5-1-2.3-1.5-3.6-1.6c-0.8,0-1.5-0.5-1.9-1.2c-0.3-0.7-0.3-1.6,0.2-2.2c1.6-2.2,4.1-3.5,6.8-3.5c1.8,0,3.8,0.5,5.7,1.6
		c3.1,1.7,5.2,4.8,5.7,8.5c0.5,3.5-0.7,6.9-3.1,9.1c-2.8,2.7-6.5,4.2-10.2,4.2C65,321.4,62.7,320.8,60.4,319.5z"/>
	<path class="st1" d="M144.6,182.7c0.2,0,0.5,0,0.7,0c12.3,0.4,18.4,9.1,14.3,20.8c-3.8,10.7-19.7,14.4-37,15.9
		c-0.8,0.1-0.9,1.2-0.1,1.4c13.5,3.6,18.5,11.4,18.5,17.3c0,6.5-3.6,14.3-12.3,14.3c-7.7,0-10.9-4.9-12.5-12
		c-0.1-0.5,0.3-0.9,0.7-0.9c0.2,0,0.3,0.1,0.5,0.2c1.4,1.4,3.5,3,6.1,3c4.9,0,8.6-11.3-1.7-17.1c-3.6-2-8.4-3-13.4-3
		c-9.4,0-19.5,3.5-23.2,10.3c-5.7,10.4-0.1,16.2,4.7,16.2c4.4,0,4.2-4.7,0.9-7.5c-0.4-0.3-0.3-1,0.2-1.2c2.3-1,4.4-1.5,6.3-1.5
		c8.8,0,13.3,9.8,9.2,18c-2.6,5.2-7,7.3-11.6,7.3c-4.4,0-9.1-1.9-12.5-4.8c-6.3-5.3-7.2-13.1-3.8-22.4c0.2-0.5-0.2-0.9-0.7-0.9
		c-0.2,0-0.4,0.1-0.5,0.2c-19.6,20.6-9.1,54.9,8,57.9c0,0,0.1,0,0.1,0c0.5,0,0.8-0.4,0.7-0.9c-2.1-7.3,2.2-12.2,7.9-13
		c0.6-0.1,1.2-0.1,1.7-0.1c5.1,0,8.8,3,9.8,7.1c1,4.1,0,8.8-6,12.6c-0.6,0.4-0.4,1.3,0.3,1.3c18.1,1,25.4,20.4,15.7,36.3
		c-0.3,0.5,0.1,1.1,0.6,1.1c0.1,0,0.2,0,0.2,0c7.7-2.6,14-3.7,19.2-3.7c12.8,0,18.7,6.5,20.4,12.6c2.5,8.8-4.8,15.4-10.5,16.4
		c-0.8,0.1-1.5,0.2-2.2,0.2c-4.6,0-9-2.4-10.9-9.1c-0.1-0.5,0.2-0.9,0.7-0.9c0.1,0,0.1,0,0.2,0c0.8,0.2,1.6,0.4,2.4,0.4
		c4.5,0,7.9-4,5.7-8.9c-1.7-3.9-5.9-5.9-11.1-5.9c-2.2,0-4.6,0.4-7,1.2c-0.7,0.2-0.7,1.2,0,1.4c4.6,1.2,6.8,3.5,7.9,5.1
		c0.3,0.5-0.1,1.1-0.6,1.1c-0.1,0-0.2,0-0.3,0c-4.5-1.7-8.3-2.6-11.8-2.6c-1.7,0-3.3,0.2-4.9,0.6c-0.7,0.2-0.7,1.1-0.1,1.3
		c1.4,0.6,3,1.6,3.4,3.3c0.1,0.5-0.2,0.9-0.7,0.9c-0.1,0-0.2,0-0.3-0.1c-1.4-0.7-4.2-1.6-8.3-1.6c-6.1,0-7.9,7.9-6.1,10.3
		c1,1.2,1.9,2.3,3.6,2.3c1.4,0,3.2-0.7,5.9-2.6c0.1-0.1,0.3-0.1,0.4-0.1c0.3,0,0.6,0.2,0.7,0.5c1.6,5.6-4.9,11.3-10.9,11.3
		c-3.2,0-6.2-1.5-8-5.5c-5-11.1,3.7-13.4,7.5-18c0.4-0.5,0-1.1-0.5-1.1c0,0-0.1,0-0.1,0c-2.3,0.4-6,1-10.3,1c-7.1,0-16-1.5-24.2-7.2
		c-14.4-10.1-24.7-25.2-24.7-56.7c0-31,23.6-57.9,63.7-65.2c0.6-0.1,0.8-1,0.2-1.3c-2.5-1.4-5.1-3.4-6.4-5.5
		c-0.3-0.5,0.1-1.1,0.6-1.1c0.1,0,0.2,0,0.4,0.1c5.4,3.3,10.4,4.4,15.1,4.4c8.2,0,15.1-3.7,20.9-5.5c9.3-3,11.6-7,11.7-12.3
		c0.1-3.9-4.2-6.2-8.9-6.2c-1.4,0-2.9,0.2-4.2,0.7c-0.1,0-0.1,0-0.2,0c-0.4,0-0.7-0.3-0.7-0.7C132.9,186.1,137.6,182.7,144.6,182.7
		 M55.7,273.5c-0.1,0-0.2,0-0.3,0c-1.2-0.4-2.6-1.1-4.4-2.4c-0.1-0.1-0.3-0.1-0.4-0.1c-0.3,0-0.6,0.2-0.7,0.6
		c-1.9,13.5-0.9,31.9,8.5,36.7c2.9,1.5,5.1,2.1,6.8,2.1c3.8,0,4.7-3,3.8-4.5c-0.9-1.7-3.3-2.3-4.9-2.4c-0.6,0-0.8-0.7-0.5-1.1
		c1.2-1.7,3.1-2.8,5.6-2.8c1.5,0,3.2,0.4,5,1.4c5.6,3,6.8,11,2.3,15.2c-2.2,2.1-5.5,3.8-9.1,3.8c-2.8,0-5.8-1-8.8-3.6
		c-0.1-0.1-0.3-0.2-0.5-0.2c-0.5,0-0.9,0.5-0.6,1c7.1,14.3,16.4,25.4,32.8,25.4c0.1,0,0.2,0,0.4,0c0.7,0,1-0.9,0.4-1.3
		c-7.8-4.9-11-11.1-6.5-18.7c0.1-0.2,0.4-0.3,0.6-0.3c0.3,0,0.7,0.2,0.7,0.6c0.6,8,3.2,10.3,8.2,10.3c0.3,0,0.5,0,0.8,0
		c6-0.3,11.8-4.5,11.8-14.7c0-6.9-5.3-11.5-12.3-11.5c-2.6,0-5.5,0.7-8.4,2.1c-0.1,0.1-0.2,0.1-0.3,0.1c-0.5,0-0.9-0.6-0.6-1.1
		c1.7-2.6,4.1-4.3,5.8-5.4c0.6-0.3,0.4-1.2-0.3-1.3c-11.5-1.3-26.2-9.6-28.4-27.4c-2.1-17.3,1.3-25.9,7.5-35.5
		c0.3-0.5-0.1-1.1-0.6-1.1c-0.1,0-0.3,0-0.4,0.1C64.3,240.9,56,248,54,256.4c-2.2,9.1-0.7,13.4,2.1,15.9
		C56.6,272.8,56.2,273.5,55.7,273.5 M144.6,179.7c-8.7,0-14.6,4.7-14.9,11.7c0,1,0.3,2,1,2.7c0.7,0.7,1.7,1.1,2.7,1.1
		c0.4,0,0.8-0.1,1.1-0.2c1-0.3,2.2-0.5,3.3-0.5c2.2,0,4.3,0.7,5.3,1.7c0.5,0.6,0.6,1,0.6,1.4c-0.1,3.4-0.9,6.8-9.6,9.5
		c-1.5,0.5-3,1.1-4.7,1.7c-4.5,1.7-9.7,3.7-15.3,3.7c-4.6,0-9-1.3-13.5-4c-0.6-0.4-1.3-0.5-1.9-0.5c-1.4,0-2.6,0.7-3.2,1.9
		c-0.6,1.2-0.6,2.6,0.1,3.8c0.8,1.2,1.8,2.3,2.9,3.3c-17.6,4.1-32.5,12.2-43.2,23.5c-11.5,12.2-17.6,27.2-17.6,43.6
		c0,36.3,13.9,50.7,25.9,59.2c7.3,5.1,16,7.7,25.9,7.7c1.1,0,2.3,0,3.4-0.1c-3.4,3.2-6.5,7.9-2.7,16.5c2.1,4.6,6,7.2,10.7,7.2
		c4.4,0,9-2.3,11.8-5.9c2.2-2.8,2.9-6.1,2-9.1c-0.4-1.6-1.9-2.7-3.6-2.7c-0.8,0-1.5,0.2-2.2,0.7c-2.6,1.9-3.8,2.1-4.1,2.1
		c-0.2,0-0.4,0-1.2-1.1c-0.2-0.5-0.1-2.3,0.8-3.8c1.1-1.7,2.4-1.7,2.9-1.7c3.5,0,5.9,0.8,7,1.4c0.5,0.2,1,0.3,1.6,0.3
		c1.1,0,2.3-0.5,2.9-1.5c0.7-0.9,0.9-2.1,0.6-3.2c-0.1-0.5-0.3-1-0.6-1.4c2.8,0.1,6,0.9,10,2.4c0.4,0.2,0.9,0.3,1.3,0.3
		c1.4,0,2.6-0.8,3.3-2c0.6-1.2,0.6-2.6-0.2-3.8c-0.6-0.9-1.4-1.9-2.7-2.9c3.7,0.2,6.5,1.6,7.6,4.1c0.6,1.3,0.6,2.4,0,3.2
		c-0.6,0.9-1.7,1.4-3,1.4c-0.5,0-1-0.1-1.5-0.2c-0.4-0.1-0.7-0.2-1.1-0.2c-1.2,0-2.3,0.6-3,1.5c-0.7,0.9-0.9,2.1-0.6,3.2
		c2.1,7.2,7.1,11.3,13.8,11.3c0.9,0,1.8-0.1,2.7-0.2c4.2-0.7,8.6-3.6,11.1-7.5c2.4-3.8,3.1-8.2,1.9-12.6
		c-2.6-9.3-11.3-14.8-23.3-14.8c-4.5,0-9.5,0.7-14.9,2.2c3.2-7.9,3-16.5-0.6-23.5c-3.1-5.9-8.3-9.9-14.6-11.6
		c4.2-4.6,3.9-9.6,3.2-12.5c-1.4-5.6-6.6-9.4-12.7-9.4c-0.7,0-1.4,0-2.1,0.1c-3.8,0.5-7.1,2.5-9.1,5.5c-1.4,2.1-2,4.6-1.9,7.3
		c-4.6-2.3-8.6-7.5-10.9-14.5c-2.7-8.1-3.1-19,1.9-28.9c0,7.4,3.4,12.1,6.8,15c4.1,3.4,9.5,5.5,14.5,5.5c6.3,0,11.4-3.2,14.3-8.9
		c2.6-5.2,2.5-11.3-0.4-15.9c-2.5-4.1-6.7-6.4-11.5-6.4c-2.4,0-5,0.6-7.5,1.8c-1.2,0.5-1.9,1.6-2.1,2.9c-0.2,1.3,0.3,2.5,1.3,3.3
		c1,0.8,1.4,1.8,1.4,2.2c-0.1,0-0.2,0-0.4,0c-1,0-2.4-0.5-3.3-2.1c-1.4-2.3-0.9-5.7,1.3-9.7c2.8-5.1,11.3-8.7,20.6-8.7
		c4.7,0,8.9,0.9,11.9,2.6c4.7,2.6,5.5,6.5,4.8,9.2c-0.4,1.7-1.4,2.4-1.7,2.4c-1.7,0-3.1-1.1-4-2.1c-0.7-0.7-1.7-1.1-2.7-1.1
		c-1.1,0-2.2,0.5-2.9,1.4c-0.7,0.9-1,2-0.7,3.1c0.8,3.5,3.3,14.3,15.4,14.3c10.1,0,15.3-8.7,15.3-17.3c0-5.2-3.2-12-11.8-16.7
		c6-0.9,11-2.1,15.1-3.6c8-3,13.2-7.4,15.2-13.2c2.3-6.5,1.9-12.7-1.3-17.3c-3.2-4.6-8.8-7.3-15.7-7.5
		C145.1,179.7,144.8,179.7,144.6,179.7L144.6,179.7z M59,271.2c-0.2-0.4-0.5-0.8-0.9-1.2c-1.5-1.4-3.3-4.2-1.2-13
		c0.7-2.9,2.3-5.6,4.2-8.1C59,255.2,58.2,262,59,271.2L59,271.2z M55.7,276.5c1.5,0,2.9-1,3.4-2.4c0.1-0.2,0.1-0.3,0.1-0.5
		c0,0.2,0.1,0.5,0.1,0.7c1.2,9.9,6,17.4,12.4,22.4c-0.8-0.2-1.7-0.3-2.5-0.3c-3.2,0-6.2,1.5-8,4.1c-0.8,1.1-0.9,2.5-0.3,3.8
		c0.6,1.2,1.8,2,3.1,2.1c1.1,0.1,2,0.4,2.3,0.7c-0.1,0.1-0.5,0.2-1.1,0.2c-0.9,0-2.7-0.3-5.4-1.7c-6.7-3.5-8.5-17.4-7.3-30.2
		c0.6,0.3,1.3,0.6,1.9,0.8C54.8,276.5,55.2,276.5,55.7,276.5L55.7,276.5z M82.1,307.6c-0.4-2.3-1.3-4.4-2.7-6.1
		c1.9,0.8,3.8,1.5,5.7,2c-0.9,0.9-1.7,1.9-2.5,3C82.4,306.8,82.2,307.2,82.1,307.6L82.1,307.6z M67.4,322.9c4,0,8.1-1.7,11.2-4.6
		c2.3-2.1,3.6-5.2,3.6-8.4c0.1,0.1,0.1,0.3,0.2,0.4c0.7,1.2,1.9,1.9,3.2,1.9c0.6,0,1.2-0.1,1.7-0.4c2.3-1.2,4.8-1.8,7.1-1.8
		c5.5,0,9.3,3.5,9.3,8.5c0,7.1-3.3,11.4-8.9,11.7c-0.2,0-0.5,0-0.7,0c-2.5,0-4.7,0-5.2-7.5c-0.1-2-1.7-3.4-3.7-3.4
		c-1.3,0-2.5,0.7-3.2,1.8c-2.4,3.9-4.7,10.8,1.3,17.7c-7.6-1.9-13.7-7.1-19.4-16.3C65.1,322.8,66.2,322.9,67.4,322.9L67.4,322.9z"/>
</g>
<g>
	<path class="st0" d="M708,373.1c-4,0-8.1-2.1-10.6-5.3c-1.9-2.5-2.5-5.2-1.8-7.8c0.3-0.9,1.1-1.6,2.1-1.6c0.5,0,0.9,0.1,1.3,0.4
		c2.2,1.6,3.8,2.3,5,2.3c0.8,0,1.4-0.4,2.4-1.7c0.5-0.6,0.6-2.8-0.4-4.8c-0.6-1.1-1.9-3.1-4.5-3.1c-3.8,0-6.4,0.9-7.6,1.5
		c-0.3,0.1-0.6,0.2-0.9,0.2c-0.7,0-1.3-0.3-1.8-0.9c-0.4-0.6-0.6-1.3-0.4-1.9c0.3-1.2,1.1-2.3,2.3-3.2c-0.8-0.1-1.6-0.2-2.5-0.2
		c-3.2,0-6.8,0.8-11.2,2.5c-0.3,0.1-0.5,0.2-0.8,0.2c-0.8,0-1.6-0.4-1.9-1.2c-0.4-0.7-0.3-1.6,0.1-2.2c1-1.5,2.8-3.4,6.2-4.8
		c-1.4-0.3-2.8-0.4-4.1-0.4c-4.7,0-8.2,1.8-9.7,5c-0.8,1.7-0.7,3.4,0.1,4.7c0.9,1.3,2.4,2.1,4.2,2.1c0.6,0,1.3-0.1,2-0.3
		c0.2-0.1,0.4-0.1,0.7-0.1c0.7,0,1.4,0.3,1.8,0.9s0.5,1.3,0.4,1.9c-2.5,8.9-8.8,10.2-12.4,10.2c-0.8,0-1.6-0.1-2.5-0.2
		c-3.8-0.6-7.8-3.3-10-6.9c-1.5-2.4-3.1-6.3-1.7-11.4c2.4-8.6,10.6-13.7,21.8-13.7c5.2,0,11.1,1,17.7,3.1
		c-4.4-8.3-4.7-17.7-0.8-25.2c3.3-6.3,9.2-10.4,16.5-11.4c-5.9-4.7-5.6-10-4.9-13c1.3-5,5.7-8.3,11.3-8.3c0.6,0,1.3,0,1.9,0.1
		c3.4,0.4,6.3,2.2,8,4.8c1.2,1.8,2.3,4.7,1.4,8.8c6-1.7,11.3-7.8,14.1-16.3c3.3-10,3.3-24.4-5.7-36c2.2,8.6,0.3,15.7-5.4,20.4
		c-3.9,3.2-8.9,5.2-13.5,5.2c-5.7,0-10.3-2.9-12.9-8.1c-2.4-4.7-2.3-10.3,0.3-14.5c2.2-3.6,5.9-5.7,10.2-5.7c2.2,0,4.5,0.6,6.9,1.6
		c0.7,0.3,1.2,1,1.3,1.7c0.1,0.8-0.2,1.5-0.8,2c-1.6,1.4-2.2,3.1-1.9,4.1c0.2,0.5,0.8,0.8,1.8,0.8c1.8,0,3.6-1.1,4.6-2.8
		c1.6-2.8,1.2-6.7-1.3-11.2c-3.6-6.6-13.6-9.5-21.9-9.5c-4.9,0-9.4,1-12.6,2.8c-5.4,3.1-6.4,7.6-5.5,10.8c0.5,2,1.8,3.5,3.1,3.5
		c2.2,0,4-1.4,5.1-2.5c0.4-0.4,1-0.7,1.6-0.7c0.7,0,1.3,0.3,1.7,0.8c0.4,0.5,0.6,1.2,0.4,1.9c-1.3,5.6-4.2,13.1-14,13.1
		c-9.1,0-13.8-7.9-13.8-15.8c0-5.7,4.2-13.3,15.8-17.5c-13.7-1.4-30.3-5-34.4-16.5c-2.2-6.1-1.8-11.7,1.1-15.9
		c2.9-4.2,8.1-6.7,14.6-6.9c0.2,0,0.5,0,0.7,0c7.9,0,13.2,4,13.4,10.3c0,0.6-0.2,1.2-0.6,1.6c-0.4,0.4-1,0.7-1.6,0.7
		c-0.2,0-0.5,0-0.7-0.1c-1.2-0.4-2.5-0.6-3.8-0.6c-2.6,0-5.1,0.8-6.4,2.2c-0.7,0.7-1,1.5-1,2.5c0.1,4.7,1.9,8.2,10.6,10.9
		c1.5,0.5,3,1,4.6,1.7c4.7,1.8,9.9,3.8,15.8,3.8c4.9,0,9.6-1.4,14.3-4.2c0.4-0.2,0.7-0.3,1.2-0.3c0.8,0,1.5,0.4,1.9,1.2
		c0.4,0.7,0.4,1.6-0.1,2.2c-1.3,2-3.4,3.7-5.2,4.9c18.7,3.8,34.5,12,45.6,23.8c11.3,11.9,17.2,26.6,17.2,42.5
		c0,35.6-13.5,49.7-25.3,58c-7,4.9-15.4,7.4-25,7.4c-2.7,0-5.4-0.2-8.1-0.6c0.4,0.4,0.9,0.8,1.4,1.2c3.9,3.2,8.8,7.2,4.6,16.7
		C715.6,370.8,712.2,373.1,708,373.1z M723.8,320.7c0.8,0,1.5,0.4,1.9,1.1c3,5,4.5,12.3-4.7,19.2c11.4-0.8,19.9-7.4,27.6-21.5
		c-2.2,1.3-4.6,1.9-7,1.9c-3.6,0-7.3-1.5-10.2-4.2c-2.4-2.2-3.5-5.7-3.1-9.1c0.5-3.6,2.6-6.8,5.7-8.5c2-1,3.9-1.6,5.7-1.6
		c2.8,0,5.2,1.3,6.8,3.5c0.5,0.7,0.5,1.5,0.2,2.2c-0.3,0.7-1.1,1.2-1.9,1.2c-1.4,0.1-3.1,0.6-3.7,1.6c-0.2,0.3-0.2,0.9,0.1,1.3
		c0.4,0.7,1.2,1,2.4,1c1.6,0,3.7-0.7,6.1-1.9c7.8-4,9.6-19.7,7.8-33.9c-1.2,0.8-2.5,1.4-3.6,1.8c-0.2,0.1-0.5,0.1-0.8,0.1
		c-0.9,0-1.7-0.6-2-1.4c-0.3-0.9-0.1-1.8,0.6-2.4c1.8-1.6,4-4.9,1.7-14.4c-1.5-6.1-6.5-11.5-10.7-15.2c5,8.9,7.2,17.6,5.4,32.7
		c-2.1,16.8-15,26.2-27.6,28.4c1.5,1.1,3.2,2.7,4.5,4.7c0.4,0.7,0.5,1.5,0.1,2.3c-0.4,0.7-1.1,1.2-1.9,1.2l0,0c-0.3,0-0.7-0.1-1-0.2
		c-2.6-1.3-5.2-2-7.7-2c-6.3,0-10.8,4.1-10.8,10c0,9.4,5.4,13,10.4,13.2c0.2,0,0.5,0,0.7,0c3.9,0,6.2-1.4,6.7-8.9
		C721.7,321.6,722.6,320.7,723.8,320.7z"/>
	<path class="st1" d="M664.4,182.7c7,0,11.7,3.4,11.9,8.9c0,0.4-0.3,0.7-0.7,0.7c-0.1,0-0.1,0-0.2,0c-1.4-0.4-2.8-0.7-4.2-0.7
		c-4.7,0-9,2.3-8.9,6.2c0.1,5.3,2.3,9.3,11.7,12.3c5.8,1.8,12.7,5.5,20.9,5.5c4.6,0,9.6-1.2,15.1-4.4c0.1-0.1,0.3-0.1,0.4-0.1
		c0.5,0,0.9,0.6,0.6,1.1c-1.3,2.1-3.9,4-6.4,5.5c-0.6,0.3-0.4,1.2,0.2,1.3c40.1,7.3,63.7,34.2,63.7,65.2c0,31.5-10.3,46.6-24.7,56.7
		c-8.1,5.7-17.1,7.2-24.2,7.2c-4.3,0-7.9-0.5-10.3-1c0,0-0.1,0-0.1,0c-0.6,0-0.9,0.7-0.5,1.1c3.8,4.6,12.5,6.9,7.5,18
		c-1.8,3.9-4.8,5.5-8,5.5c-6,0-12.5-5.7-10.9-11.3c0.1-0.3,0.4-0.5,0.7-0.5c0.1,0,0.3,0,0.4,0.1c2.7,1.9,4.5,2.6,5.9,2.6
		c1.7,0,2.7-1,3.6-2.3c1.8-2.3,0-10.3-6.1-10.3c-4.1,0-6.8,1-8.3,1.6c-0.1,0-0.2,0.1-0.3,0.1c-0.4,0-0.8-0.4-0.7-0.9
		c0.5-1.6,2-2.7,3.4-3.3c0.6-0.3,0.5-1.2-0.1-1.3c-1.6-0.4-3.2-0.6-4.9-0.6c-3.5,0-7.3,0.9-11.8,2.6c-0.1,0-0.2,0-0.3,0
		c-0.5,0-0.9-0.6-0.6-1.1c1-1.6,3.3-3.8,7.9-5.1c0.7-0.2,0.7-1.1,0-1.4c-2.4-0.8-4.8-1.2-7-1.2c-5.1,0-9.3,2-11.1,5.9
		c-2.2,4.9,1.2,8.9,5.7,8.9c0.8,0,1.6-0.1,2.4-0.4c0.1,0,0.1,0,0.2,0c0.5,0,0.8,0.4,0.7,0.9c-1.9,6.7-6.3,9.1-10.9,9.1
		c-0.7,0-1.5-0.1-2.2-0.2c-5.7-0.9-13-7.5-10.5-16.4c1.7-6.1,7.6-12.6,20.4-12.6c5.2,0,11.5,1.1,19.2,3.7c0.1,0,0.2,0,0.2,0
		c0.5,0,0.9-0.6,0.6-1.1c-9.8-15.9-2.4-35.4,15.7-36.3c0.7,0,0.9-0.9,0.3-1.3c-6-3.8-7.1-8.5-6-12.6c1.1-4.1,4.7-7.1,9.8-7.1
		c0.6,0,1.1,0,1.7,0.1c5.7,0.7,10,5.6,7.9,13c-0.1,0.5,0.2,0.9,0.7,0.9c0,0,0.1,0,0.1,0c17.1-3,27.6-37.3,8-57.9
		c-0.1-0.2-0.3-0.2-0.5-0.2c-0.4,0-0.9,0.4-0.7,0.9c3.4,9.3,2.5,17.1-3.8,22.4c-3.4,2.9-8.1,4.8-12.5,4.8c-4.6,0-9-2.1-11.6-7.3
		c-4.2-8.2,0.4-18,9.2-18c1.9,0,4,0.5,6.3,1.5c0.5,0.2,0.6,0.8,0.2,1.2c-3.3,2.9-3.5,7.5,0.9,7.5c4.8,0,10.4-5.8,4.7-16.2
		c-3.7-6.8-13.8-10.3-23.2-10.3c-5,0-9.8,1-13.4,3c-10.3,5.8-6.6,17.1-1.7,17.1c2.7,0,4.8-1.6,6.1-3c0.1-0.2,0.3-0.2,0.5-0.2
		c0.4,0,0.8,0.4,0.7,0.9c-1.6,7-4.9,12-12.5,12c-8.7,0-12.3-7.8-12.3-14.3c0-5.8,4.9-13.7,18.5-17.3c0.8-0.2,0.7-1.3-0.1-1.4
		c-17.4-1.5-33.2-5.2-37-15.9c-4.2-11.7,1.9-20.4,14.3-20.8C663.9,182.7,664.2,182.7,664.4,182.7 M723.3,309.2c-0.1,0-0.2,0-0.3-0.1
		c-2.9-1.5-5.8-2.1-8.4-2.1c-6.9,0-12.3,4.6-12.3,11.5c0,10.1,5.8,14.4,11.8,14.7c0.3,0,0.5,0,0.8,0c5,0,7.6-2.3,8.2-10.3
		c0-0.4,0.4-0.6,0.7-0.6c0.2,0,0.5,0.1,0.6,0.3c4.6,7.6,1.3,13.8-6.5,18.7c-0.6,0.4-0.3,1.3,0.4,1.3c0.1,0,0.2,0,0.4,0
		c16.4,0,25.6-11.1,32.8-25.4c0.3-0.5-0.2-1-0.6-1c-0.2,0-0.3,0.1-0.5,0.2c-3,2.6-6,3.6-8.8,3.6c-3.7,0-7-1.7-9.1-3.8
		c-4.4-4.2-3.2-12.2,2.3-15.2c1.8-1,3.5-1.4,5-1.4c2.5,0,4.4,1.2,5.6,2.8c0.3,0.4,0,1.1-0.5,1.1c-1.6,0.1-4,0.7-4.9,2.4
		c-0.8,1.5,0,4.5,3.8,4.5c1.7,0,3.9-0.6,6.8-2.1c9.3-4.8,10.3-23.2,8.5-36.7c-0.1-0.4-0.4-0.6-0.7-0.6c-0.1,0-0.3,0-0.4,0.1
		c-1.7,1.2-3.2,1.9-4.4,2.4c-0.1,0-0.2,0-0.3,0c-0.6,0-1-0.8-0.5-1.2c2.8-2.5,4.3-6.8,2.1-15.9c-2-8.4-10.3-15.5-14.8-18.8
		c-0.1-0.1-0.3-0.1-0.4-0.1c-0.5,0-0.9,0.6-0.6,1.1c6.2,9.7,9.6,18.2,7.5,35.5c-2.2,17.8-16.8,26.1-28.4,27.4
		c-0.7,0.1-0.8,1-0.3,1.3c1.7,1,4.1,2.8,5.8,5.4C724.2,308.6,723.8,309.2,723.3,309.2 M664.4,179.7c-0.3,0-0.5,0-0.8,0
		c-7,0.2-12.6,2.9-15.7,7.5c-3.1,4.6-3.6,10.7-1.3,17.3c3.8,10.7,17.4,14.9,30.3,16.8c-2.7,1.5-4.9,3.2-6.8,5.2
		c-3.2,3.4-5,7.5-5,11.5c0,8.6,5.3,17.3,15.3,17.3c12.1,0,14.6-10.8,15.4-14.3c0.3-1.1,0-2.2-0.7-3.1c-0.7-0.9-1.8-1.4-2.9-1.4
		c-1,0-2,0.4-2.7,1.1c-0.9,0.9-2.3,2.1-4,2.1c-0.3,0-1.2-0.7-1.7-2.4c-0.7-2.7,0.2-6.5,4.8-9.2c3-1.7,7.2-2.6,11.9-2.6
		c9.3,0,17.8,3.6,20.6,8.7c2.2,4,2.6,7.4,1.3,9.7c-0.9,1.5-2.4,2.1-3.3,2.1c-0.2,0-0.3,0-0.4,0c0.1-0.5,0.4-1.4,1.4-2.2
		c1-0.8,1.4-2.1,1.3-3.3c-0.2-1.3-1-2.3-2.1-2.9c-2.6-1.2-5.1-1.8-7.5-1.8c-4.8,0-9,2.3-11.5,6.4c-2.9,4.6-3,10.7-0.4,15.9
		c2.9,5.7,8,8.9,14.3,8.9c4.9,0,10.3-2.1,14.5-5.5c3.5-2.9,6.9-7.6,6.8-15c5,9.9,4.6,20.9,1.9,28.9c-2.3,7-6.3,12.2-10.9,14.5
		c0.1-2.7-0.6-5.2-1.9-7.3c-2-3-5.3-5-9.1-5.5c-0.7-0.1-1.4-0.1-2.1-0.1c-6.2,0-11.3,3.8-12.7,9.4c-0.7,2.9-1.1,7.8,3.2,12.5
		c-6.4,1.7-11.6,5.7-14.6,11.6c-3.7,7-3.8,15.6-0.6,23.5c-5.4-1.5-10.5-2.2-14.9-2.2c-12,0-20.7,5.5-23.3,14.8
		c-1.2,4.4-0.6,8.8,1.9,12.6c2.5,3.9,6.9,6.9,11.1,7.5c0.9,0.1,1.8,0.2,2.7,0.2c6.7,0,11.7-4.1,13.8-11.3c0.3-1.1,0.1-2.3-0.6-3.2
		c-0.7-0.9-1.8-1.5-3-1.5c0,0,0,0,0,0c-0.4,0-0.7,0.1-1.1,0.2c-0.5,0.2-1,0.2-1.5,0.2c-1.3,0-2.4-0.5-3-1.4c-0.6-0.9-0.6-2,0-3.2
		c1.1-2.5,3.9-4,7.6-4.1c-1.2,1-2.1,2-2.7,2.9c-0.8,1.1-0.8,2.6-0.2,3.8c0.6,1.2,1.9,2,3.3,2c0.5,0,0.9-0.1,1.3-0.3
		c3.9-1.5,7.1-2.3,10-2.4c-0.2,0.5-0.4,0.9-0.6,1.4c-0.3,1.1-0.1,2.3,0.6,3.2c0.7,0.9,1.8,1.5,2.9,1.5c0.5,0,1.1-0.1,1.6-0.3
		c1.1-0.5,3.5-1.4,7-1.4c0.4,0,1.8,0,2.9,1.7c1,1.5,1,3.3,0.8,3.8c-0.8,1.1-1,1.1-1.2,1.1c-0.4,0-1.5-0.2-4.1-2.1
		c-0.6-0.5-1.4-0.7-2.2-0.7c-1.7,0-3.1,1.1-3.6,2.7c-0.9,3.1-0.1,6.3,2,9.1c2.7,3.6,7.4,5.9,11.8,5.9c4.7,0,8.6-2.6,10.7-7.2
		c3.8-8.5,0.7-13.3-2.7-16.5c1.1,0.1,2.3,0.1,3.4,0.1c9.9,0,18.6-2.6,25.9-7.7c12.1-8.5,25.9-22.9,25.9-59.2
		c0-16.3-6.1-31.4-17.6-43.6c-10.8-11.3-25.6-19.4-43.2-23.5c1.1-1,2.1-2.1,2.9-3.3c0.7-1.1,0.8-2.6,0.1-3.8
		c-0.7-1.2-1.9-1.9-3.2-1.9c-0.7,0-1.3,0.2-1.9,0.5c-4.5,2.7-8.9,4-13.5,4c-5.6,0-10.8-2-15.3-3.7c-1.6-0.6-3.2-1.2-4.7-1.7
		c-8.7-2.8-9.5-6.1-9.6-9.5c0-0.4,0.1-0.8,0.6-1.4c1-1,3.1-1.7,5.3-1.7c1.1,0,2.3,0.2,3.3,0.5c0.4,0.1,0.8,0.2,1.1,0.2
		c1,0,2-0.4,2.7-1.1c0.7-0.7,1.1-1.7,1-2.7C679.1,184.4,673.1,179.7,664.4,179.7L664.4,179.7z M750,271.2c0.8-9.3,0-16.1-2.1-22.2
		c1.9,2.5,3.5,5.2,4.2,8.1c2.1,8.7,0.3,11.6-1.2,13C750.5,270.4,750.2,270.8,750,271.2L750,271.2z M737.3,296.8
		c6.3-5,11.2-12.4,12.4-22.4c0-0.2,0.1-0.5,0.1-0.7c0,0.2,0.1,0.3,0.1,0.5c0.5,1.4,1.9,2.4,3.4,2.4c0.4,0,0.9-0.1,1.3-0.2
		c0.6-0.2,1.2-0.5,1.9-0.8c1.2,12.7-0.5,26.7-7.3,30.2c-2.8,1.4-4.5,1.7-5.4,1.7c-0.6,0-1-0.1-1.1-0.2c0.3-0.3,1.2-0.6,2.3-0.7
		c1.3-0.1,2.5-0.9,3.1-2.1c0.6-1.2,0.5-2.7-0.3-3.8c-1.9-2.6-4.8-4.1-8-4.1C738.9,296.5,738.1,296.6,737.3,296.8L737.3,296.8z
		 M723.9,303.4c1.9-0.5,3.8-1.2,5.7-2c-1.4,1.7-2.3,3.9-2.7,6.1c-0.1-0.4-0.3-0.8-0.5-1.1C725.6,305.3,724.7,304.3,723.9,303.4
		L723.9,303.4z M723.3,312.2c1.3,0,2.6-0.7,3.2-1.9c0.1-0.1,0.1-0.3,0.2-0.4c0.1,3.2,1.4,6.3,3.6,8.4c3.1,2.9,7.2,4.6,11.2,4.6
		c1.2,0,2.4-0.1,3.5-0.4c-5.7,9.2-11.9,14.4-19.5,16.3c3.7-4.2,5.9-10.2,1.4-17.7c-0.7-1.1-1.9-1.8-3.2-1.8c-2,0-3.6,1.5-3.7,3.4
		c-0.5,7.5-2.7,7.5-5.2,7.5c-0.2,0-0.4,0-0.7,0c-5.6-0.2-8.9-4.6-8.9-11.7c0-5,3.8-8.5,9.3-8.5c2.3,0,4.7,0.6,7.1,1.8
		C722.1,312,722.7,312.2,723.3,312.2L723.3,312.2z"/>
</g>
<g>
	<path class="st2" d="M184.1,308.2v-11.3h8.3v-42.4h-8.3v-12.3h37c13.4,0,19.5,9.5,19.5,18.3c0,6.7-2.1,10.9-7,13.7
		c4.6,2.8,8.7,7.2,8.7,15.9c0,10.5-7.5,18.2-17.7,18.2H184.1z M218.1,296.8c6,0,8.1-4.7,8.1-8.7c0-2.6-0.9-8.7-8.9-8.7h-8.9v17.4
		H218.1z M216.2,269c5.8,0,9.4-2.8,9.4-7.3c0-3.3-1.5-7.3-8.6-7.3h-8.6V269H216.2z"/>
	<path class="st1" d="M221.1,243.6c12.4,0,18,8.7,18,16.8c0,8.1-3.2,11.4-8.8,13.6v0c5.9,2.9,10.5,7,10.5,16c0,9-6.3,16.7-16.2,16.7
		h-38.9v-8.3h8.3v-45.4h-8.3v-9.3H221.1 M207,270.5h9.3c7.3,0,10.9-4.1,10.9-8.8s-2.8-8.8-10.1-8.8H207V270.5 M207,298.3h11.1
		c6.8,0,9.6-5.3,9.6-10.2c0-4.9-2.5-10.2-10.4-10.2H207V298.3 M221.1,240.6h-35.5h-3v3v9.3v3h3h5.3v39.4h-5.3h-3v3v8.3v3h3h38.9
		c11,0,19.2-8.5,19.2-19.7c0-8.2-3.4-12.9-7.5-15.9c4-3,5.8-7.3,5.8-13.7C242.1,250.9,235.5,240.6,221.1,240.6L221.1,240.6z
		 M210,255.9h7.1c4.8,0,7.1,1.9,7.1,5.8c0,3.6-3,5.8-7.9,5.8H210V255.9L210,255.9z M210,280.9h7.4c6.1,0,7.4,3.9,7.4,7.2
		c0,1.2-0.3,7.2-6.6,7.2H210V280.9L210,280.9z"/>
</g>
<g>
	<path class="st2" d="M380,308.2v-11.3h8.3v-42.4H380v-12.3h37c13.4,0,19.5,9.5,19.5,18.3c0,6.7-2.1,10.9-7,13.7
		c4.6,2.8,8.7,7.2,8.7,15.9c0,10.5-7.5,18.2-17.7,18.2H380z M413.9,296.8c6,0,8.1-4.7,8.1-8.7c0-2.6-0.9-8.7-8.9-8.7h-8.9v17.4
		H413.9z M412.1,269c5.8,0,9.4-2.8,9.4-7.3c0-3.3-1.5-7.3-8.6-7.3h-8.6V269H412.1z"/>
	<path class="st1" d="M416.9,243.6c12.4,0,18,8.7,18,16.8c0,8.1-3.2,11.4-8.8,13.6l0,0c5.9,2.9,10.5,7,10.5,16
		c0,9-6.3,16.7-16.2,16.7h-38.9v-8.3h8.3v-45.4h-8.3v-9.3H416.9 M402.8,270.5h9.3c7.3,0,10.9-4.1,10.9-8.8s-2.8-8.8-10.1-8.8h-10.1
		V270.5 M402.8,298.3h11.1c6.8,0,9.6-5.3,9.6-10.2c0-4.9-2.5-10.2-10.4-10.2h-10.4V298.3 M416.9,240.6h-35.5h-3v3v9.3v3h3h5.3v39.4
		h-5.3h-3v3v8.3v3h3h38.9c11,0,19.2-8.5,19.2-19.7c0-8.2-3.4-12.9-7.5-15.9c4-3,5.8-7.3,5.8-13.7
		C437.9,250.9,431.3,240.6,416.9,240.6L416.9,240.6z M405.8,255.9h7.1c4.8,0,7.1,1.9,7.1,5.8c0,3.6-3,5.8-7.9,5.8h-6.3V255.9
		L405.8,255.9z M405.8,280.9h7.4c6.1,0,7.4,3.9,7.4,7.2c0,1.2-0.3,7.2-6.6,7.2h-8.1V280.9L405.8,280.9z"/>
</g>
<g>
	<path class="st2" d="M288.1,308.2v-12h5.9l-4.2-9.6h-22.1l-3.7,9.5h8.2l0.6,12.2h-27.8V296h6.7l20.3-53.9h16.4l21.7,53.9h5.2v12.2
		H288.1z M285.5,275.8l-7.2-18.5l-7.2,18.5H285.5z"/>
	<path class="st1" d="M287.5,243.6l21.7,53.9h4.8v9.2h-24.3v-9h6.7l-5.4-12.6h-24.1l-4.9,12.5h8.9l0.5,9.2h-24.7v-9.2h6.3l20.3-53.9
		H287.5 M268.9,277.3h18.8l-9.4-24.1L268.9,277.3 M289.5,240.6h-2h-14.4H271l-0.7,1.9l-19.5,51.9h-4.2h-3v3v9.2v3h3h24.7h3.2
		l-0.2-3.2l-0.5-9.2l-0.1-2.8h-2.9h-4.5l2.5-6.5h20.1l2.9,6.6h-2.2h-3v3v9v3h3h24.3h3v-3v-9.2v-3h-3h-2.7l-20.9-52L289.5,240.6
		L289.5,240.6z M273.3,274.3l5-12.8l5,12.8H273.3L273.3,274.3z"/>
</g>
<g>
	<path class="st2" d="M366.9,309c-6.8,0-10.7-4-12.1-7.4c-1-2.5-2-15.5-2.1-18.3c-0.1-2.2-0.1-4.4-6.8-4.4h-6.3v17.3h7.8v12h-31V296
		h8v-42.2h-8v-11.7h31c15.1,0,20.6,2.7,23.4,11.5c2.4,7.6,0,14.7-6.5,19.1c5.3,3,5.3,9.2,5.2,15.2c0,0.7,0,1.4,0,2.1
		c0,4.2,0.2,6,0.4,6.8c0.3-0.6,0.9-2.1,1-4.9l0.1-1.4h7.4v1.5C378.3,304.4,375.2,309,366.9,309z M348.5,268.6c7,0,7.3-6.3,7.3-7.5
		c0-2.8-1.1-7.5-8.2-7.5h-8.2v15.1H348.5z"/>
	<path class="st1" d="M347.4,243.6c14.5,0,19.4,2.4,22,10.4c2.5,8-0.8,15.2-8.6,18.9c8.1,2,7.2,9.4,7.2,17c0,7.6,0.6,8.6,1.9,8.6
		s2.3-2.3,2.5-6.6h4.5c0,12.4-3.1,15.5-10,15.5s-9.9-4.4-10.7-6.5c-0.8-2.1-1.9-14.3-2-17.8c-0.1-3.6-1.5-5.8-8.3-5.8h-7.8v20.3h7.8
		v9h-28v-9.2h8v-45.2h-8v-8.7C317.9,243.6,332.8,243.6,347.4,243.6 M337.9,270.1h10.5c6.4,0,8.8-4.8,8.8-9c0-4.3-2.2-9-9.7-9
		c-7.5,0-9.7,0-9.7,0V270.1 M347.4,240.6h-29.5h-3v3v8.7v3h3h5v39.2h-5h-3v3v9.2v3h3h28h3v-3v-9v-3h-3h-4.8v-14.3h4.8
		c5.3,0,5.3,1.1,5.3,2.9c0.1,2.4,1,15.9,2.2,18.8c1.5,3.9,5.9,8.4,13.5,8.4c11.4,0,13-8.9,13-18.5v-3h-3h-4.5h-1.4
		c0-0.4,0-0.7,0-1.1c0.1-5.3,0.1-11.5-4.2-15.3c5.7-4.8,7.8-12,5.4-19.5C368.8,242.6,361.2,240.6,347.4,240.6L347.4,240.6z
		 M340.9,255h6.7c1.7,0,6.7,0,6.7,6c0,1.8-0.6,6-5.8,6h-7.5V255L340.9,255z"/>
</g>
<g>
	<path class="st2" d="M556.6,309c-6.8,0-10.7-4-12.1-7.4c-1-2.5-2-15.5-2.1-18.3c-0.1-2.2-0.1-4.4-6.8-4.4h-6.3v17.3h7.8v12h-31V296
		h8v-42.2h-8v-11.7h31c15.1,0,20.6,2.7,23.4,11.5c2.4,7.6,0,14.7-6.5,19.1c5.3,3,5.3,9.2,5.2,15.2c0,0.7,0,1.4,0,2.1
		c0,4.2,0.2,6,0.4,6.8c0.3-0.6,0.9-2.1,1-4.9l0.1-1.4h7.4v1.5C568.1,304.4,565,309,556.6,309z M538.2,268.6c7,0,7.3-6.3,7.3-7.5
		c0-2.8-1.1-7.5-8.2-7.5h-8.2v15.1H538.2z"/>
	<path class="st1" d="M537.1,243.6c14.5,0,19.4,2.4,22,10.4s-0.8,15.2-8.6,18.9c8.1,2,7.2,9.4,7.2,17c0,7.6,0.6,8.6,1.9,8.6
		s2.3-2.3,2.5-6.6h4.5c0,12.4-3.1,15.5-10,15.5c-6.8,0-9.9-4.4-10.7-6.5c-0.8-2.1-1.9-14.3-2-17.8c-0.1-3.6-1.5-5.8-8.3-5.8h-7.8
		v20.3h7.8v9h-28v-9.2h8v-45.2h-8v-8.7C507.6,243.6,522.6,243.6,537.1,243.6 M527.7,270.1h10.5c6.4,0,8.8-4.8,8.8-9
		c0-4.3-2.2-9-9.7-9c-7.5,0-9.7,0-9.7,0V270.1 M537.1,240.6h-29.5h-3v3v8.7v3h3h5v39.2h-5h-3v3v9.2v3h3h28h3v-3v-9v-3h-3h-4.8v-14.3
		h4.8c5.3,0,5.3,1.1,5.3,2.9c0.1,2.4,1,15.9,2.2,18.8c1.5,3.9,5.9,8.4,13.5,8.4c11.4,0,13-8.9,13-18.5v-3h-3h-4.5h-1.4
		c0-0.4,0-0.7,0-1.1c0.1-5.3,0.1-11.5-4.2-15.3c5.7-4.8,7.8-12,5.4-19.5C558.6,242.6,550.9,240.6,537.1,240.6L537.1,240.6z
		 M530.7,255h6.7c1.7,0,6.7,0,6.7,6c0,1.8-0.6,6-5.8,6h-7.5V255L530.7,255z"/>
</g>
<g>
	<polygon class="st2" points="442.5,308.2 442.5,296 450.5,296 450.6,254 442.4,254 442.4,242.1 495.9,242.1 495.9,263.2 
		484.5,263.2 484.6,253.8 465.7,253.8 465.7,266.8 473.7,266.8 473.7,259.1 484.2,259.1 484.2,285.1 473.9,285.1 473.9,277.7 
		465.8,277.7 465.8,295.9 485.7,295.9 485.7,284.6 496.7,284.6 496.7,308.2 	"/>
	<path class="st1" d="M494.4,243.6v18.1H486l0.1-9.4h-21.9v16h11v-7.8h7.4v23.1h-7.3v-7.4h-11v21.2h22.8v-11.4h8v20.6H444v-9.2h8
		l0.1-45.1h-8.1v-8.8H494.4 M497.4,240.6h-3h-50.4h-3v3v8.8v3h3h5.1l-0.1,39.1h-5h-3v3v9.2v3h3h51.2h3v-3v-20.6v-3h-3h-8h-1.5v-18.3
		h0.4h8.3h3v-3v-18.1V240.6L497.4,240.6z M467.2,255.3h15.9l0,2.2h-0.4h-7.4h-3v3v4.8h-5V255.3L467.2,255.3z M467.3,279.2h5v4.4v3h3
		h7.3h1.5v7.8h-16.8V279.2L467.3,279.2z"/>
</g>
<g>
	<path class="st2" d="M611.2,308.2c-15,0-18-1.3-23.7-4.1l-1.2,4.1h-9.6V282h10.2l0.2,1.3c1.2,9.6,11.9,13,18.9,13
		c3.1,0,13.2-0.6,13.2-8.4c0-5.7-6.6-9.1-19.7-9.9c-7.6-0.5-13.9-3.2-17.9-7.7c-3.1-3.5-4.6-8-4.3-12.8c0.7-10.9,9.1-18,21.7-18.7
		c2.1-0.1,4-0.2,5.7-0.2c7.3,0,11.7,1,16.1,2.7l0.5-2h10.1v22.9h-10.3l-0.1-1.3c-0.7-6.7-3.5-10.8-15.2-10.8
		c-11.1,0-11.1,5.1-11.1,6.7c0,1.6,0,3.4,4.4,4.3c0.6,0.1,1.4,0.3,2.3,0.4c11.2,2.2,22.2,4.7,26,8.1c4.7,4.2,8.8,7.9,7.7,18.2
		C634,297.3,629.1,308.2,611.2,308.2z"/>
	<path class="st1" d="M604.7,240.4c7.8,0,12.1,1.1,17.2,3.3l0.6-2.5h7.4V261h-7.4c-0.8-7.8-4.6-12.2-16.7-12.2
		c-12.1,0-12.6,5.9-12.6,8.2c0,2.3,0.5,4.8,5.6,5.8c5.1,1,22.9,4.1,27.6,8.2c4.6,4.2,8.2,7.4,7.2,16.9c-1,9.5-6.4,18.7-22.4,18.7
		s-17.8-1.4-24.7-4.8l-1.4,4.8h-7v-23.2h7.4c1.3,10.5,12.8,14.4,20.4,14.4c7.6,0,14.7-2.8,14.7-9.9c0-7.1-7.8-10.5-21.1-11.4
		c-13.3-0.8-21.4-8.7-20.7-18.9c0.7-10.2,8.7-16.7,20.3-17.3C601.2,240.4,603,240.4,604.7,240.4 M604.7,237.4
		c-1.7,0-3.6,0.1-5.8,0.2c-13.3,0.7-22.3,8.5-23.1,20.1c-0.4,5.2,1.2,10,4.6,13.9c4.2,4.8,10.9,7.7,18.9,8.2
		c8.3,0.5,18.3,2.4,18.3,8.4c0,1.6-0.8,6.9-11.7,6.9c-6.4,0-16.4-3.1-17.4-11.7l-0.3-2.6h-2.7h-7.4h-3v3v23.2v3h3h7h2.2l0.6-2.2
		l0.4-1.3c5,2.4,8.9,3.5,22.8,3.5c14.8,0,23.8-7.6,25.3-21.3c1.2-11-3.3-15.1-8.2-19.5c-4.1-3.7-15.3-6.3-26.7-8.5
		c-0.9-0.2-1.7-0.3-2.2-0.4c-3.2-0.6-3.2-1.4-3.2-2.9c0-1.4,0-5.2,9.6-5.2c10.7,0,13.1,3.3,13.7,9.5l0.3,2.7h2.7h7.4h3v-3v-19.9v-3
		h-3h-7.4h-2.4l-0.3,1.5C615.7,238.2,611.4,237.4,604.7,237.4L604.7,237.4z"/>
</g>
<g>
	<path class="st0" d="M807,32.5c-3.7-17.6-16.6-25.9-32.8-27.9s-43.2-2-56,9.8c-9.3,8.6-15,18.8-17,26.4c-0.2,0.7-1.2,0.7-1.4-0.1
		l-7.2-40.1c-0.1-0.3-0.4-0.6-0.7-0.6l-1.3,0c-0.3,0-0.5,0.2-0.6,0.4c-2.4,4.9-6.3,6.3-11.7,6.4c-5.5,0-46.7,0.4-50.7,0.4
		c-3.8,0.1-7.5-2.7-8.5-5.1c-0.1-0.3-0.4-0.4-0.7-0.5l-2.4,0c-0.2,0-0.4,0.1-0.6,0.3L611,7.6c-0.1,0.2-0.3,0.3-0.6,0.3l-45.1-0.1
		c-0.2,0-0.5,0.1-0.6,0.3l-7.5,12.3c-0.2,0.3-0.1,0.7,0.2,0.9c3.8,3,4.5,4.6,4.7,8.1c0.1,2.5,0,8.5,0,12.2c0,0.7-1,1-1.4,0.3
		L544.4,8.3c-0.1-0.2-0.4-0.4-0.7-0.4l-35.4,0.6c-0.2,0-0.5,0.1-0.6,0.3l-7.3,11.8c-0.2,0.3-0.1,0.6,0.1,0.9
		c4.1,4.1,5.4,10.4,5.3,16.8c-0.1,6.6-1.3,77.9-2.1,80.9c-0.6,2.3-4,6.8-5.5,8.8c-0.3,0.4-0.1,1.1,0.5,1.1l41.8,4.6
		c0.2,0,0.5-0.1,0.6-0.3c1.1-1.4,5.7-7.4,7-11c0.1-0.3,0-0.6-0.3-0.8c-1.1-0.8-4.1-3-5.5-4.2c-1.8-1.5-2.9-4.4-2.8-11.4
		c0.1-5,0.4-12.8,0.6-17c0-0.7,1-0.9,1.4-0.3c3.7,7.6,14.5,30,16.3,33.7c2.1,4.3,1.7,6.8-1.1,12.2c-0.2,0.4,0,1,0.5,1l40.4,7
		c0.3,0,0.5-0.1,0.7-0.3l7.3-10.4c0.2-0.3,0.2-0.7-0.1-1c-5.2-4.1-9.5-10.7-9.2-22.9c0.3-10.8,0.7-37.4,0.9-44.9
		c0-0.7,0.8-0.9,1.3-0.4c0.7,0.9,1.6,1.7,2.1,1.8c1,0.1,2,0,3.2-2c1.1-2,6.3-11.3,9-16.1c2.6-4.6,8.9-4.3,14.7-4.1
		c0.4,0,0.7,0.3,0.7,0.7c-0.2,8-1.6,81-1.6,87.6c-0.1,7-1.5,9.7-3.7,12.3c-1.3,1.5-2.4,2.8-3.1,3.5c-0.4,0.4-0.2,1.1,0.4,1.2
		l49.2,11.5c0.3,0.1,0.5,0,0.7-0.2l8.1-10.2c0.2-0.3,0.2-0.8-0.1-1c-5.9-4.5-11.3-13.8-11.1-28.7c0.2-14.4,1.8-69.6,2-76.4
		c0-0.4,0.3-0.7,0.7-0.7c7.7,0,17.2,1.9,21.9,16.2c0.2,0.5,0.9,0.7,1.2,0.2l0.5-0.6c0.4-0.5,1.3-0.2,1.3,0.5
		c-0.3,4.4-1.1,15.1-1.4,33.9c-0.6,33.1,2.5,59.5,13.7,71s27.1,20,51.9,24.2c24.7,4.2,38.8-11,42.8-27.4s7.2-39.5,8.3-67.5
		C810.3,71.3,810.7,50,807,32.5z M597.7,48.2l-0.1-17.8c0-0.1,0-0.3,0.1-0.4l5.7-9.3c0.4-0.6,1.4-0.3,1.3,0.4
		c-1,11.4-3.9,21.8-5.6,27.3C598.8,49.2,597.7,49,597.7,48.2z M764.3,141.1c-1.7,6.2-7.7,6-15.3,2.4c-7.6-3.6-14.6-6.1-15.1-19.6
		c-0.4-12.9,2.6-71.7,2.8-76.3c0-0.2,0.1-0.4,0.2-0.5c1.1-0.9,6.3-4.9,15.6-4.7c10.5,0.3,13.1,1.1,13.5,5.8
		c0.4,4.7,1.4,23.7,1.2,45.6C767,115.7,766.1,134.8,764.3,141.1z"/>
	<path class="st0" d="M201.2,50.2c-1.8-19.4-4.5-34.1-22.8-40s-43.7-5.2-55.8,12.2c-10.6,15.3-21,29.9-17.5,67.8
		c0.1,0.9-1,1.3-1.5,0.5c-3.5-5.7-12-17.2-27.1-24.4c-20.7-9.8-29.2-15.2-26.3-19.8c2.9-4.7,12.3-8,24.2,0.3
		c10.9,7.5,15.6,21.9,16.3,24.5c0.1,0.2,0.3,0.4,0.5,0.5l1.8,0.7c0.4,0.1,0.8,0,1-0.4l7.4-12.9c0.1-0.2,0.1-0.4,0.1-0.6l-12-56.9
		c-0.1-0.7-1-0.9-1.4-0.3C84,6.6,77.7,9.8,70.4,8.3c-7.9-1.7-25-7.4-41.4,4C12.6,23.7,5,46.1,7.7,58.7c2.7,12.7,9.3,21.7,29.6,33.5
		c20.3,11.8,34.2,21.4,34.1,35c-0.1,13.7-7.7,17.2-19.9,17.1c-12-0.1-25.2-6-38.6-37.7c-0.3-0.6-1.1-0.7-1.4-0.1L0.1,124.3
		C0,124.5,0,124.7,0,124.9l17.5,77.4c0.2,0.7,1.2,0.9,1.5,0.2c9.6-18.4,19.1-22.8,34.1-20.4c15.5,2.4,27.1-2.3,34.7-9.4
		c7.5-7,19.7-23.2,22.7-41.2c0.1-0.4,0.4-0.7,0.8-0.7l0.9,0c0.4,0,0.7,0.3,0.8,0.6c0.9,3.3,5.9,19.2,24.7,23.1
		c20.9,4.3,39.6-2,47-9.5c7.4-7.5,14.9-19.8,15.9-34.3C201.5,96.3,203,69.6,201.2,50.2z M159.7,116.6c-0.1,0.3-0.4,0.4-0.7,0.4
		c-0.9,0-3.2,0.1-7.1,0.1c-5.3-0.1-5.4-9-6.6-15.8c-1.2-6.7-0.2-41.6,0.1-49.7c0.3-7.9,6.4-8.3,12.9-9.1c0.4-0.1,0.8,0.2,0.9,0.6
		c0.8,2.9,3.9,15.2,3.7,37.1C162.9,88.6,163.9,108.2,159.7,116.6z"/>
	<path class="st0" d="M493.9,80.4c-4,11-15.4,13.3-15.4,13.3l6.4-12.2L479,44.2c2.9-0.2,4.8,4.7,5.4,8.6c0.6,3.9,1.7,10.2,1.7,10.2
		l10.2-17.5l-7.9-39.9l-3.7,0c-1.5,2.7-6,4-11.7,4.2c-5.7,0.1-66.8-0.4-66.8-0.4l-7.9,12.1c-2.8-8.4-8.4-11.7-20.9-11.9
		c-12.4-0.1-66.6-0.1-66.6-0.1L302,21.7l5.4,7.2l0.7,85.2c-5.1-0.1-11.3-7-16.1-17.7s-7.2-16.2-7.2-16.2c10.3-6,15.2-14.3,15.9-23.5
		s0.9-12,1.1-24c0.1-12-5-22.9-23.8-23.3c-20.6-0.4-69.8-0.2-69.8-0.2l-8.6,12.3c7.3,5.6,9.1,11,9,21.2c-0.1,10.2,0.6,59.4,0.5,67.6
		c-0.1,8.1,0.7,15.9-3.9,22.3c-4.6,6.5-7.5,12.9-7.5,12.9l54.7-9l7.3-14.6c-8.1-1.3-12.2-7.1-12.1-15.8s0.3-12.8,0.3-12.8l1.8,0.2
		l12.5,28.3l-6.3,14.4c0,0,50-7.2,93.6-8.2l8.9-13.8c-8.7-1.7-12.4-6.9-12.1-13.4c0.3-6.5,0.9-9.2,0.9-9.2l3.1,0l11.2,24.2
		l-7.2,10.9c0,0,38.5-0.4,72.9,0.8c34.4,1.2,38.5,1.4,42.4,1.7c3.9,0.2,9.7,3.2,10.9,8.7l8.1-13.2l11.5-42.9L493.9,80.4z
		 M263.1,50.9c-2.5,1-15.1,5.7-15.1,5.7l-0.1-12.8c0,0,7.3-0.7,12.8-0.9c5.5-0.1,5.5,3.1,5.5,4.1C266.2,48,265.6,49.9,263.1,50.9z
		 M362,46.2c-2.2,0.8-15.4,6.8-15.4,6.8l0.3-9.8c7.1-0.7,12.2-0.3,14.7,0C364.1,43.4,364.3,45.4,362,46.2z M403.1,109.6
		c-1.1-0.6-8.2-8.6-10.3-12.6c-2.1-4-9-20.1-9-20.1c10.3-3.1,15.5-22.1,16.6-27.5s2.2-16-0.5-23.7l1.4-1.5c5.3,4.6,6,7.1,6,12.4
		c-0.1,5.3-0.4,66.5-0.4,70.1S404.1,110.2,403.1,109.6z M446.8,42.6l27.5,0.5c-4.1,5.1-9.6,6.2-14.1,6.2c-4.5,0-14.1,0.1-14.1,0.1
		L446.8,42.6z M445.7,93.6l0.4-11.2c0,0,1.3-0.1,10.3-0.2c9-0.1,20.1,3.7,20,11.7L445.7,93.6z"/>
</g>
<g>
	<path class="st2" d="M86.4,8.7c-0.1-0.2-0.3-0.3-0.5-0.2c-2.6,2.1-6,3.7-11.5,3.6c-5.7-0.1-18.3-2.6-24.2-2.3
		c-5.9,0.3-24.7,3-31.4,21.9s1.5,31.2,5.5,35.7S34.4,77.2,49,84.6s28.1,17,30.5,28.2s2,18.4-3.1,24.8s-10.7,10.9-24,10.5
		c-12.9-0.3-25-3.2-39.9-30.3c-0.2-0.3-0.7-0.1-0.6,0.2L26.2,180c0.1,0.3,0.5,0.3,0.6,0.1c1-2.1,4-7.3,9.7-8.4
		c7.1-1.4,20.8-0.6,27.9-0.5c7.1,0.1,18.2-4.9,22.9-9.3c4.7-4.4,17.1-14.9,18.5-37.1c1.5-22.2-8.6-38-15-43
		c-6.5-5-23.9-16.8-34.6-22.2S39.1,45,43.4,36.3s14.8-8,18.2-8c3.4,0,20.6-1.3,33.4,23c0.2,0.3,0.7,0.2,0.6-0.2L86.4,8.7z"/>
	<path class="st2" d="M197.8,80.1c-0.9-46.5-1.2-67.5-38.6-68.3c-13-0.3-26.1,2.8-34.6,15.3c-8.5,12.5-6.6,48.8-6.2,61.9
		c0.5,13,1.7,28.7,8.1,40.6c6.4,11.9,14.5,13.2,22.3,13.1c7.7-0.1,24.3-1.8,31.9-7C188.3,130.6,198.8,126.6,197.8,80.1z
		 M176.1,107.4c-0.5,7.5-2.2,7.6-5.5,10.6c-3.2,3-13.9,3.2-18.4,3.2c-4.4,0-5.2-0.7-7.8-3.8c-2.6-3.1-4.5-24.2-4.9-41
		c-0.4-16.8,1.1-29.3,2.7-36s7.9-8.6,16.1-8.7c13.6-0.2,15.4,3.7,16.4,12.1s1.8,17.9,2.4,35.6C177.8,97.2,176.7,100,176.1,107.4z"/>
	<path class="st2" d="M303.9,118c0.3,0,0.4-0.5,0.1-0.6c-5.5-1.9-12.6-10.7-15.7-17.9c-3.2-7.4-10.8-25.6-11.8-28
		c-0.1-0.2,0-0.3,0.1-0.4c1.3-0.6,7.2-3.3,12.2-5.4c5.7-2.4,8.2-9.1,8.3-16c0.1-6.9,0-2.2,0.2-20.2c0.2-17.9-27.9-16.8-27.9-16.8
		L213.7,13c-0.3,0-0.4,0.4-0.1,0.6c3.9,1.9,6.7,8.2,7.2,14.6c0.5,7.3,1,63.4,0.8,78.3c-0.2,14.3-2.3,17.6-10.1,23.8
		c-0.3,0.2-0.1,0.6,0.2,0.5l39.8-7.3c0.3-0.1,0.3-0.5,0.1-0.6c-6.2-2.9-8.1-8.8-8-20.9c0.1-11.2-0.1-16.4-0.2-17.5
		c0-0.1,0.1-0.2,0.2-0.3l12.2-4.8c0.1-0.1,0.3,0,0.4,0.1c1.3,2.7,12.7,26,14.4,30.1c1.7,4.2,2.3,5.8-3.3,12.2
		c-0.2,0.2,0,0.5,0.3,0.5L303.9,118z M271.2,52c-3.1,1.2-23.7,9.3-26.9,10.5c-0.2,0.1-0.4-0.1-0.4-0.3l-0.4-29.5
		c0-0.2,0.1-0.3,0.3-0.3c2.7,0,22.6,0.3,26.9,0.4c4.3,0.2,5.8,4.9,5.9,5.4c0,0,0,0.1,0,0.1l-0.1,6.8C276.4,49.1,274.5,50.7,271.2,52
		z"/>
	<path class="st2" d="M366.7,115.5l36.5-0.7c0.5,0,0.6-0.6,0.2-0.8c-4.4-2.1-9.2-5.5-12.6-12c-3.5-6.8-14.2-30.6-15.7-34
		c-0.1-0.2,0-0.5,0.3-0.6c15.4-6,17.6-9.7,19.9-16.3c2.3-6.7,1.4-16.7,0.3-24s-5.2-13.1-18.4-13.2l-62.5-0.7c-0.4,0-0.6,0.5-0.3,0.8
		c3.4,3.2,5.5,5.3,5.6,11.7c0.1,6.9,0.4,59.9,0.5,72.1c0.1,11.3-2.2,15.4-6.7,18.8c-0.3,0.3-0.1,0.8,0.3,0.8l34.7-1.9
		c0.4,0,0.6-0.5,0.3-0.8c-2.6-2-5.6-7.8-5.7-12.2c-0.1-4.9-0.2-20.5-0.2-22.8c0-0.2,0.1-0.3,0.3-0.4l12-4.4c0.2-0.1,0.5,0,0.5,0.2
		c1.5,3.2,12.1,26.2,14.2,30.6c1.9,4.2,0.9,6.7-3.4,9.1C366.1,114.9,366.2,115.5,366.7,115.5z M368.7,48.9
		c-3.5,1.6-8.2,2.6-13.1,4.7c-4.1,1.8-10.1,5-12.1,6c-0.3,0.2-0.6-0.1-0.6-0.4L342.4,34c0-0.2,0.2-0.5,0.4-0.4
		c3.1,0,21,0.2,25.6,0.3c5.1,0,4.9,3.7,4.8,8S372.2,47.3,368.7,48.9z"/>
	<path class="st2" d="M415.3,14.9c-0.4-0.2-0.3-0.8,0.2-0.8c11.6-0.1,59.6-0.7,63.4-0.8c3.1-0.1,5.5-1.7,6.5-2.6
		c0.3-0.2,0.6-0.1,0.7,0.3l4.8,28.3c0.1,0.5-0.5,0.7-0.8,0.3c-3.6-5.3-7.5-7-13.9-7c-6.5-0.1-30.2,0.1-33.7,0.1
		c-0.2,0-0.4,0.2-0.4,0.4l0.2,20.1c0,0.2,0.2,0.4,0.4,0.4c2.5,0,15.1-0.3,20.4-0.2c4.8,0.1,9.9-3,11.6-4.1c0.3-0.2,0.6,0,0.7,0.3
		l4.4,24.9c0.1,0.4-0.4,0.7-0.7,0.4c-1.6-1.3-5.2-3.7-10.6-3.7c-6.8,0.1-23.5,0.5-26.3,0.6c-0.2,0-0.4,0.2-0.4,0.4l-0.1,24.7
		c0,0.2,0.2,0.4,0.4,0.4c3.1,0.1,22.6,0.7,29.1,0.9c6.6,0.2,14.5-0.9,21.4-8.2c0.3-0.3,0.8,0,0.7,0.4l-8,29.9
		c-0.1,0.3-0.5,0.4-0.8,0.1c-1-1.4-3.6-4-9.7-4.3c-7.6-0.4-54.7-1-62.6-1.1c-0.4,0-0.6-0.5-0.3-0.8c5.4-4.6,7.3-7,7.4-18.4
		c0.1-12.1,0.9-65.4,0.8-71.1C419.9,20.2,418.3,16.6,415.3,14.9z"/>
	<path class="st2" d="M513.5,12.8l28.3-0.4c0.1,0,0.2,0.1,0.3,0.2l30.8,62.7c0.1,0.3,0.5,0.2,0.5-0.1c0.1-7,0.9-44.5,1-50.2
		c0.1-5.8-2.3-10-6.3-12.4c-0.2-0.1-0.2-0.5,0.1-0.5l32.4-0.1c0.3,0,0.4,0.4,0.1,0.5c-4.2,2-6.6,9-6.7,12.8
		c-0.1,9.6-2.1,81.7-2.2,88.8c-0.1,6.4,4.3,14.1,6.1,16.5c0.1,0.2,0,0.5-0.3,0.4l-29.4-5.1c-0.2,0-0.3-0.3-0.2-0.5
		c1.4-1.4,2.3-3.8,0.6-7.7c-1.8-4.3-31.4-64.5-31.9-64.2c-0.5,0.3-0.9,0.3-0.9,1.2c0,0.9-0.8,49-0.9,53.3c0,4,2.3,11,6.2,14.2
		c0.2,0.2,0.1,0.5-0.2,0.5l-31.5-2.9c-0.3,0-0.3-0.3-0.1-0.5c5.3-3.8,6.4-8.6,6.6-15.2c0.2-6.9,1.8-67.5,1.6-75.3
		c-0.2-7.6-0.2-10.1-4.4-15.3C513.1,13,513.2,12.8,513.5,12.8z"/>
	<path class="st2" d="M616.9,7.5l-7.2,34.8c-0.1,0.5,0.5,0.8,0.8,0.3c7.1-10.3,14.8-11.6,18.4-11.8c3.3-0.2,9.6-0.2,11.3-0.2
		c0.3,0,0.4,0.2,0.4,0.5c-0.1,6.5-1.2,81.6-1.4,88.3c-0.2,6.8,0.6,11.3-7.2,17.1c-0.3,0.2-0.2,0.7,0.1,0.8l40.1,11.1
		c0.5,0.1,0.8-0.5,0.4-0.8c-10.4-8.9-9.8-25.7-9.6-30.4c0.6-17.2,2.3-80.8,2.4-86.7c0-0.2,0.2-0.4,0.4-0.4c1.3,0,5-0.1,8.3-0.1
		c3.8,0,11.4,0.4,19.8,7.9c0.3,0.3,0.8,0,0.8-0.4c-0.7-4.7-3.1-21.4-4.8-29.5c-0.1-0.3-0.5-0.5-0.7-0.2c-1.1,1-4.1,2.9-10,3
		c-11.6,0.2-43.4,0.6-50.1,0.7c-6.1,0.1-9.4-2-11.4-4.3C617.4,7,616.9,7.1,616.9,7.5z"/>
	<path class="st2" d="M804.2,50.1c-2.5-29-9.5-42.3-48.5-41.9c-15.1,0.2-25.1,2.4-32.5,8.2c-7.4,5.8-13.6,14.3-15.4,34.5
		s-3.3,56.8,0,79.9c3.2,23.1,14,28.3,23.1,32.8c9.1,4.6,25.4,9.8,36.6,10.4c11.2,0.5,22.5-4,26-10.5c3.5-6.5,6.8-14.8,7.8-25.4
		C803,118.2,806.7,79.1,804.2,50.1z M776.9,141.7c-3.4,10.4-10.9,12.7-26,7.3c-15-5.5-21.3-10.6-22.1-28.4
		c-0.8-17.7,0.2-54.4,2.8-72.3c2.6-17.9,13-18.6,23-19.1c24.5-1.2,25.4,8,26.2,28.6C781.6,78.4,780.3,131.4,776.9,141.7z"/>
</g>
</svg>
